<?xml version="1.0" standalone="no"?>
<!DOCTYPE svg PUBLIC "-//W3C//DTD SVG 20010904//EN"
 "http://www.w3.org/TR/2001/REC-SVG-20010904/DTD/svg10.dtd">
<svg version="1.0" xmlns="http://www.w3.org/2000/svg"
 width="64.000000pt" height="64.000000pt" viewBox="0 0 64.000000 64.000000"
 preserveAspectRatio="xMidYMid meet">

<g transform="translate(0.000000,64.000000) scale(0.100000,-0.100000)"
fill="#000000" stroke="none">
<path d="M148 503 c-9 -10 -18 -48 -22 -86 -5 -55 -4 -68 9 -73 8 -3 15 -11
15 -17 0 -6 7 -19 17 -29 14 -16 15 -18 0 -18 -23 0 -47 -39 -47 -77 l0 -33
90 0 c89 0 90 0 90 -25 0 -25 1 -25 85 -25 l85 0 0 49 c0 34 8 62 25 92 14 24
25 50 25 57 0 18 -27 15 -34 -5 -6 -14 -12 -12 -39 15 -25 24 -42 32 -69 32
-40 0 -48 11 -48 69 0 24 -8 49 -21 65 -18 23 -27 26 -83 26 -47 0 -67 -4 -78
-17z m143 -3 c13 -8 19 -21 19 -46 0 -34 0 -34 -24 -19 -22 15 -27 15 -55 1
-16 -9 -44 -16 -61 -16 -26 0 -30 4 -30 27 0 43 26 63 82 63 27 0 58 -5 69
-10z m-8 -84 c26 -20 23 -81 -8 -111 -48 -49 -112 -21 -122 53 -5 37 -3 42 15
42 15 0 19 -5 15 -20 -3 -11 0 -20 6 -20 6 0 11 10 11 23 0 16 9 27 28 34 36
14 34 14 55 -1z m-146 -48 c-3 -8 -6 -5 -6 6 -1 11 2 17 5 13 3 -3 4 -12 1
-19z m180 0 c-3 -8 -6 -5 -6 6 -1 11 2 17 5 13 3 -3 4 -12 1 -19z m93 -43 c0
-20 5 -25 26 -25 24 0 26 -3 21 -30 -9 -40 -3 -38 24 10 12 22 24 38 27 36 8
-8 -43 -86 -54 -82 -7 3 -20 -12 -30 -32 -11 -20 -23 -40 -29 -44 -5 -4 2 -8
18 -8 17 0 27 5 27 14 0 8 5 18 10 21 6 4 10 -7 10 -24 l0 -31 -75 0 -75 0 0
110 0 110 50 0 c47 0 50 -2 50 -25z m30 0 c10 -12 10 -15 -4 -15 -9 0 -16 7
-16 15 0 8 2 15 4 15 2 0 9 -7 16 -15z m-144 -42 c-10 -10 -19 5 -10 18 6 11
8 11 12 0 2 -7 1 -15 -2 -18z m-34 -32 c-4 -9 -7 -11 -10 -3 -2 8 -11 8 -28 1
-32 -11 -34 -11 -34 2 0 5 5 7 10 4 6 -3 10 -1 10 5 0 5 13 9 29 8 21 -1 27
-6 23 -17z m-102 -31 c0 -29 -4 -40 -15 -40 -16 0 -20 35 -9 64 11 29 24 16
24 -24z m34 -17 c6 -17 3 -23 -8 -23 -12 0 -16 10 -16 38 1 38 10 32 24 -15z
m83 25 c-3 -8 -6 -5 -6 6 -1 11 2 17 5 13 3 -3 4 -12 1 -19z"/>
<path d="M255 387 c-4 -10 -5 -21 -1 -24 10 -10 18 4 13 24 -4 17 -4 17 -12 0z"/>
<path d="M190 331 c0 -32 62 -37 74 -6 4 12 -4 15 -34 15 -22 0 -40 -4 -40 -9z"/>
<path d="M353 323 c9 -2 23 -2 30 0 6 3 -1 5 -18 5 -16 0 -22 -2 -12 -5z"/>
<path d="M353 293 c9 -2 23 -2 30 0 6 3 -1 5 -18 5 -16 0 -22 -2 -12 -5z"/>
<path d="M358 273 c18 -2 45 -2 60 0 15 2 0 4 -33 4 -33 0 -45 -2 -27 -4z"/>
<path d="M358 253 c18 -2 45 -2 60 0 15 2 0 4 -33 4 -33 0 -45 -2 -27 -4z"/>
<path d="M343 233 c9 -2 25 -2 35 0 9 3 1 5 -18 5 -19 0 -27 -2 -17 -5z"/>
<path d="M343 213 c9 -2 25 -2 35 0 9 3 1 5 -18 5 -19 0 -27 -2 -17 -5z"/>
</g>
</svg>
